<svg width="22" height="25" viewBox="0 0 22 25" fill="none" xmlns="http://www.w3.org/2000/svg">
<path d="M17.8354 8.13511L13.0809 12.8896L17.8354 17.644L19.764 15.7155C20.0229 15.4387 20.3354 15.3762 20.7015 15.528C21.0497 15.6798 21.2238 15.9432 21.2238 16.3182V22.3182C21.2238 22.5503 21.139 22.7512 20.9693 22.9208C20.7997 23.0905 20.5988 23.1753 20.3666 23.1753H14.3666C13.9916 23.1753 13.7282 22.9967 13.5765 22.6396C13.4247 22.2914 13.4872 21.9833 13.764 21.7155L15.6925 19.7869L10.9381 15.0324L6.18359 19.7869L8.11217 21.7155C8.38895 21.9833 8.45145 22.2914 8.29967 22.6396C8.14788 22.9967 7.88449 23.1753 7.50949 23.1753H1.50949C1.27734 23.1753 1.07645 23.0905 0.906808 22.9208C0.737165 22.7512 0.652344 22.5503 0.652344 22.3182V16.3182C0.652344 15.9432 0.830915 15.6798 1.18806 15.528C1.53627 15.3762 1.84431 15.4387 2.11217 15.7155L4.04074 17.644L8.7952 12.8896L4.04074 8.13511L2.11217 10.0637C1.94252 10.2333 1.74163 10.3181 1.50949 10.3181C1.40234 10.3181 1.2952 10.2958 1.18806 10.2512C0.830915 10.0994 0.652344 9.83601 0.652344 9.46101V3.46101C0.652344 3.22886 0.737165 3.02797 0.906808 2.85833C1.07645 2.68869 1.27734 2.60386 1.50949 2.60386H7.50949C7.88449 2.60386 8.14788 2.78244 8.29967 3.13958C8.45145 3.48779 8.38895 3.79583 8.11217 4.06369L6.18359 5.99226L10.9381 10.7467L15.6925 5.99226L13.764 4.06369C13.4872 3.79583 13.4247 3.48779 13.5765 3.13958C13.7282 2.78244 13.9916 2.60386 14.3666 2.60386H20.3666C20.5988 2.60386 20.7997 2.68869 20.9693 2.85833C21.139 3.02797 21.2238 3.22886 21.2238 3.46101V9.46101C21.2238 9.83601 21.0497 10.0994 20.7015 10.2512C20.5854 10.2958 20.4738 10.3181 20.3666 10.3181C20.1345 10.3181 19.9336 10.2333 19.764 10.0637L17.8354 8.13511Z" fill="#e74c3c"/>
</svg>
