<svg width="24" height="25" viewBox="0 0 24 25" fill="none" xmlns="http://www.w3.org/2000/svg">
<path d="M16.7326 8.76144L20.6567 4.83733L19.2237 3.4043L15.2996 7.32841L16.7326 8.76144ZM22.4782 4.23466C22.6389 4.39537 22.7192 4.59626 22.7192 4.83733C22.7192 5.07841 22.6389 5.2793 22.4782 5.44001L5.25495 22.6632C5.09424 22.8239 4.89335 22.9043 4.65227 22.9043C4.4112 22.9043 4.21031 22.8239 4.0496 22.6632L1.39781 20.0114C1.2371 19.8507 1.15674 19.6498 1.15674 19.4088C1.15674 19.1677 1.2371 18.9668 1.39781 18.8061L18.621 1.58287C18.7817 1.42216 18.9826 1.3418 19.2237 1.3418C19.4648 1.3418 19.6657 1.42216 19.8264 1.58287L22.4782 4.23466ZM4.62549 2.29269L5.93799 2.69448L4.62549 3.09626L4.2237 4.40876L3.82192 3.09626L2.50942 2.69448L3.82192 2.29269L4.2237 0.98019L4.62549 2.29269ZM9.31299 4.46233L11.938 5.26591L9.31299 6.06948L8.50942 8.69448L7.70584 6.06948L5.08085 5.26591L7.70584 4.46233L8.50942 1.83733L9.31299 4.46233ZM21.7683 10.8641L23.0808 11.2659L21.7683 11.6677L21.3666 12.9802L20.9648 11.6677L19.6523 11.2659L20.9648 10.8641L21.3666 9.55162L21.7683 10.8641ZM13.1969 2.29269L14.5094 2.69448L13.1969 3.09626L12.7951 4.40876L12.3933 3.09626L11.0808 2.69448L12.3933 2.29269L12.7951 0.98019L13.1969 2.29269Z" fill="#e74c3c"/>
</svg>
