<svg width="6" height="26" viewBox="0 0 6 26" fill="none" xmlns="http://www.w3.org/2000/svg">
<path d="M5.35739 13.3509C5.41323 13.4067 5.44114 13.4709 5.44114 13.5435C5.44114 13.6161 5.41323 13.6803 5.35739 13.7362L1.45464 17.6389C1.39881 17.6947 1.3346 17.7227 1.26202 17.7227C1.18944 17.7227 1.12523 17.6947 1.06939 17.6389L0.650645 17.2202C0.594811 17.1643 0.566895 17.1001 0.566895 17.0275C0.566895 16.9549 0.594811 16.8907 0.650645 16.8349L3.94202 13.5435L0.650645 10.2522C0.594811 10.1963 0.566895 10.1321 0.566895 10.0595C0.566895 9.98695 0.594811 9.92274 0.650645 9.86691L1.06939 9.44816C1.12523 9.39232 1.18944 9.36441 1.26202 9.36441C1.3346 9.36441 1.39881 9.39232 1.45464 9.44816L5.35739 13.3509Z" fill="#878787"/>
</svg>
