<svg xmlns="http://www.w3.org/2000/svg" width="11" height="14" viewBox="0 0 11 14" fill="none">
<path d="M9.04834 5.57031C9.10042 5.6224 9.12646 5.68229 9.12646 5.75C9.12646 5.81771 9.10042 5.8776 9.04834 5.92969L5.40771 9.57031C5.35563 9.6224 5.29574 9.64844 5.22803 9.64844C5.16032 9.64844 5.10042 9.6224 5.04834 9.57031L1.40771 5.92969C1.35563 5.8776 1.32959 5.81771 1.32959 5.75C1.32959 5.68229 1.35563 5.6224 1.40771 5.57031L1.79834 5.17969C1.85042 5.1276 1.91032 5.10156 1.97803 5.10156C2.04574 5.10156 2.10563 5.1276 2.15771 5.17969L5.22803 8.25L8.29834 5.17969C8.35042 5.1276 8.41032 5.10156 8.47803 5.10156C8.54574 5.10156 8.60563 5.1276 8.65771 5.17969L9.04834 5.57031Z" fill="#181818"/>
</svg>