<svg width="15" height="14" viewBox="0 0 15 14" fill="none" xmlns="http://www.w3.org/2000/svg">
<path d="M6.82178 3.6875C6.82178 4 6.7723 4.29557 6.67334 4.57422C6.57438 4.85286 6.41032 5.09375 6.18115 5.29688C5.95199 5.5 5.67855 5.60156 5.36084 5.60156C4.96501 5.60156 4.60563 5.45182 4.28271 5.15234C3.9598 4.85286 3.72021 4.5 3.56396 4.09375C3.40771 3.6875 3.32959 3.29427 3.32959 2.91406C3.32959 2.60156 3.37907 2.30599 3.47803 2.02734C3.57699 1.7487 3.74105 1.50781 3.97021 1.30469C4.19938 1.10156 4.47282 1 4.79053 1C5.19157 1 5.55225 1.14974 5.87256 1.44922C6.19287 1.7487 6.43115 2.10026 6.5874 2.50391C6.74365 2.90755 6.82178 3.30208 6.82178 3.6875ZM4.1499 7.46094C4.1499 7.8776 4.04053 8.23958 3.82178 8.54688C3.60303 8.85417 3.29313 9.00781 2.89209 9.00781C2.49626 9.00781 2.12777 8.86328 1.78662 8.57422C1.44548 8.28516 1.18376 7.9375 1.00146 7.53125C0.819173 7.125 0.728027 6.72917 0.728027 6.34375C0.728027 5.92708 0.837402 5.5638 1.05615 5.25391C1.2749 4.94401 1.5848 4.78906 1.98584 4.78906C2.38167 4.78906 2.75016 4.93359 3.09131 5.22266C3.43245 5.51172 3.69417 5.86068 3.87646 6.26953C4.05876 6.67839 4.1499 7.07552 4.1499 7.46094ZM7.22803 7.25C7.84261 7.25 8.50667 7.50391 9.22021 8.01172C9.93376 8.51953 10.5301 9.13672 11.0093 9.86328C11.4884 10.5898 11.728 11.2526 11.728 11.8516C11.728 12.0911 11.6838 12.2904 11.5952 12.4492C11.5067 12.6081 11.3804 12.7253 11.2163 12.8008C11.0522 12.8763 10.8843 12.9284 10.7124 12.957C10.5405 12.9857 10.3426 13 10.1187 13C9.76449 13 9.2762 12.8828 8.65381 12.6484C8.03141 12.4141 7.55615 12.2969 7.22803 12.2969C6.88428 12.2969 6.38298 12.4128 5.72412 12.6445C5.06527 12.8763 4.54313 12.9922 4.15771 12.9922C3.20459 12.9922 2.72803 12.612 2.72803 11.8516C2.72803 11.4036 2.87386 10.9049 3.16553 10.3555C3.45719 9.80599 3.82048 9.30469 4.25537 8.85156C4.69027 8.39844 5.17855 8.01823 5.72021 7.71094C6.26188 7.40365 6.76449 7.25 7.22803 7.25ZM9.09521 5.60156C8.77751 5.60156 8.50407 5.5 8.2749 5.29688C8.04574 5.09375 7.88167 4.85286 7.78271 4.57422C7.68376 4.29557 7.63428 4 7.63428 3.6875C7.63428 3.30208 7.7124 2.90755 7.86865 2.50391C8.0249 2.10026 8.26318 1.7487 8.5835 1.44922C8.90381 1.14974 9.26449 1 9.66553 1C9.98324 1 10.2567 1.10156 10.4858 1.30469C10.715 1.50781 10.8791 1.7487 10.978 2.02734C11.077 2.30599 11.1265 2.60156 11.1265 2.91406C11.1265 3.29427 11.0483 3.6875 10.8921 4.09375C10.7358 4.5 10.4963 4.85286 10.1733 5.15234C9.85042 5.45182 9.49105 5.60156 9.09521 5.60156ZM12.4702 4.78906C12.8713 4.78906 13.1812 4.94401 13.3999 5.25391C13.6187 5.5638 13.728 5.92708 13.728 6.34375C13.728 6.72917 13.6369 7.125 13.4546 7.53125C13.2723 7.9375 13.0106 8.28516 12.6694 8.57422C12.3283 8.86328 11.9598 9.00781 11.564 9.00781C11.1629 9.00781 10.853 8.85417 10.6343 8.54688C10.4155 8.23958 10.3062 7.8776 10.3062 7.46094C10.3062 7.07552 10.3973 6.67839 10.5796 6.26953C10.7619 5.86068 11.0236 5.51172 11.3647 5.22266C11.7059 4.93359 12.0744 4.78906 12.4702 4.78906Z" fill="#181818"/>
</svg>
