<svg width="20" height="14" viewBox="0 0 20 14" fill="none" xmlns="http://www.w3.org/2000/svg">
<path d="M19.228 6H18.228V11H19.228V14H16.228V13H9.22803V14H6.22803V11H7.22803V10H4.22803V11H1.22803V8H2.22803V3H1.22803V0H4.22803V1H11.228V0H14.228V3H13.228V4H16.228V3H19.228V6ZM17.228 4V5H18.228V4H17.228ZM12.228 1V2H13.228V1H12.228ZM2.22803 1V2H3.22803V1H2.22803ZM3.22803 10V9H2.22803V10H3.22803ZM13.228 9H12.228V10H13.228V9ZM4.22803 9H11.228V8H12.228V3H11.228V2H4.22803V3H3.22803V8H4.22803V9ZM8.22803 13V12H7.22803V13H8.22803ZM18.228 13V12H17.228V13H18.228ZM17.228 11V6H16.228V5H13.228V8H14.228V11H11.228V10H8.22803V11H9.22803V12H16.228V11H17.228Z" fill="#181818"/>
</svg>
