<svg width="14" height="14" viewBox="0 0 14 14" fill="none" xmlns="http://www.w3.org/2000/svg">
<path d="M13.228 10.5V11.5C13.228 11.6354 13.1785 11.7526 13.0796 11.8516C12.9806 11.9505 12.8634 12 12.728 12H1.72803C1.59261 12 1.47542 11.9505 1.37646 11.8516C1.27751 11.7526 1.22803 11.6354 1.22803 11.5V10.5C1.22803 10.3646 1.27751 10.2474 1.37646 10.1484C1.47542 10.0495 1.59261 10 1.72803 10H12.728C12.8634 10 12.9806 10.0495 13.0796 10.1484C13.1785 10.2474 13.228 10.3646 13.228 10.5ZM13.228 6.5V7.5C13.228 7.63542 13.1785 7.7526 13.0796 7.85156C12.9806 7.95052 12.8634 8 12.728 8H1.72803C1.59261 8 1.47542 7.95052 1.37646 7.85156C1.27751 7.7526 1.22803 7.63542 1.22803 7.5V6.5C1.22803 6.36458 1.27751 6.2474 1.37646 6.14844C1.47542 6.04948 1.59261 6 1.72803 6H12.728C12.8634 6 12.9806 6.04948 13.0796 6.14844C13.1785 6.2474 13.228 6.36458 13.228 6.5ZM13.228 2.5V3.5C13.228 3.63542 13.1785 3.7526 13.0796 3.85156C12.9806 3.95052 12.8634 4 12.728 4H1.72803C1.59261 4 1.47542 3.95052 1.37646 3.85156C1.27751 3.7526 1.22803 3.63542 1.22803 3.5V2.5C1.22803 2.36458 1.27751 2.2474 1.37646 2.14844C1.47542 2.04948 1.59261 2 1.72803 2H12.728C12.8634 2 12.9806 2.04948 13.0796 2.14844C13.1785 2.2474 13.228 2.36458 13.228 2.5Z" fill="#181818"/>
</svg>
