<svg width="16" height="16" viewBox="0 0 16 16" fill="none" xmlns="http://www.w3.org/2000/svg">
<path d="M14.8866 13.3516V6.92306C14.708 7.12395 14.5155 7.30811 14.309 7.47552C12.8135 8.62507 11.6249 9.56815 10.7432 10.3048C10.4586 10.5447 10.227 10.7317 10.0484 10.8656C9.86984 10.9995 9.62849 11.1348 9.32436 11.2716C9.02023 11.4083 8.73424 11.4766 8.46638 11.4766H8.45801H8.44964C8.18178 11.4766 7.89579 11.4083 7.59166 11.2716C7.28753 11.1348 7.04618 10.9995 6.86761 10.8656C6.68903 10.7317 6.45745 10.5447 6.17285 10.3048C5.29115 9.56815 4.10254 8.62507 2.607 7.47552C2.40053 7.30811 2.20801 7.12395 2.02944 6.92306V13.3516C2.02944 13.4242 2.05594 13.487 2.10896 13.54C2.16197 13.593 2.22475 13.6195 2.29729 13.6195H14.6187C14.6913 13.6195 14.754 13.593 14.8071 13.54C14.8601 13.487 14.8866 13.4242 14.8866 13.3516ZM14.8866 4.5542C14.8866 4.54304 14.8866 4.51235 14.8866 4.46212C14.8866 4.4119 14.8866 4.37423 14.8866 4.34912C14.8866 4.32401 14.8852 4.28774 14.8824 4.2403C14.8796 4.19287 14.8712 4.15799 14.8573 4.13567C14.8433 4.11335 14.828 4.08824 14.8112 4.06034C14.7945 4.03244 14.7694 4.01151 14.7359 3.99756C14.7024 3.98361 14.6634 3.97663 14.6187 3.97663H2.29729C2.22475 3.97663 2.16197 4.00314 2.10896 4.05615C2.05594 4.10917 2.02944 4.17194 2.02944 4.24449C2.02944 5.18199 2.43959 5.9744 3.25991 6.62172C4.33691 7.46994 5.45578 8.35442 6.61649 9.27518C6.64997 9.30308 6.74763 9.38539 6.90946 9.52211C7.07129 9.65883 7.19964 9.76346 7.2945 9.83601C7.38937 9.90855 7.51353 9.99644 7.66699 10.0997C7.82045 10.2029 7.96136 10.2796 8.0897 10.3299C8.21805 10.3801 8.33803 10.4052 8.44964 10.4052H8.45801H8.46638C8.57799 10.4052 8.69796 10.3801 8.82631 10.3299C8.95466 10.2796 9.09556 10.2029 9.24902 10.0997C9.40248 9.99644 9.52665 9.90855 9.62151 9.83601C9.71638 9.76346 9.84473 9.65883 10.0066 9.52211C10.1684 9.38539 10.266 9.30308 10.2995 9.27518C11.4602 8.35442 12.5791 7.46994 13.6561 6.62172C13.9574 6.38177 14.2379 6.0595 14.4973 5.65493C14.7568 5.25035 14.8866 4.88344 14.8866 4.5542ZM15.958 4.24449V13.3516C15.958 13.7199 15.8269 14.0352 15.5646 14.2975C15.3023 14.5598 14.987 14.6909 14.6187 14.6909H2.29729C1.92899 14.6909 1.6137 14.5598 1.35142 14.2975C1.08915 14.0352 0.958008 13.7199 0.958008 13.3516V4.24449C0.958008 3.87619 1.08915 3.5609 1.35142 3.29862C1.6137 3.03634 1.92899 2.9052 2.29729 2.9052H14.6187C14.987 2.9052 15.3023 3.03634 15.5646 3.29862C15.8269 3.5609 15.958 3.87619 15.958 4.24449Z" fill="#8F8F8F"/>
</svg>
