<svg width="16" height="14" viewBox="0 0 16 14" fill="none" xmlns="http://www.w3.org/2000/svg">
<path d="M9.22803 11H14.228V10H9.22803V11ZM6.22803 7H14.228V6H6.22803V7ZM11.228 3H14.228V2H11.228V3ZM15.228 9.5V11.5C15.228 11.6354 15.1785 11.7526 15.0796 11.8516C14.9806 11.9505 14.8634 12 14.728 12H1.72803C1.59261 12 1.47542 11.9505 1.37646 11.8516C1.27751 11.7526 1.22803 11.6354 1.22803 11.5V9.5C1.22803 9.36458 1.27751 9.2474 1.37646 9.14844C1.47542 9.04948 1.59261 9 1.72803 9H14.728C14.8634 9 14.9806 9.04948 15.0796 9.14844C15.1785 9.2474 15.228 9.36458 15.228 9.5ZM15.228 5.5V7.5C15.228 7.63542 15.1785 7.7526 15.0796 7.85156C14.9806 7.95052 14.8634 8 14.728 8H1.72803C1.59261 8 1.47542 7.95052 1.37646 7.85156C1.27751 7.7526 1.22803 7.63542 1.22803 7.5V5.5C1.22803 5.36458 1.27751 5.2474 1.37646 5.14844C1.47542 5.04948 1.59261 5 1.72803 5H14.728C14.8634 5 14.9806 5.04948 15.0796 5.14844C15.1785 5.2474 15.228 5.36458 15.228 5.5ZM15.228 1.5V3.5C15.228 3.63542 15.1785 3.7526 15.0796 3.85156C14.9806 3.95052 14.8634 4 14.728 4H1.72803C1.59261 4 1.47542 3.95052 1.37646 3.85156C1.27751 3.7526 1.22803 3.63542 1.22803 3.5V1.5C1.22803 1.36458 1.27751 1.2474 1.37646 1.14844C1.47542 1.04948 1.59261 1 1.72803 1H14.728C14.8634 1 14.9806 1.04948 15.0796 1.14844C15.1785 1.2474 15.228 1.36458 15.228 1.5Z" fill="#181818"/>
</svg>
