<svg width="15" height="14" viewBox="0 0 15 14" fill="none" xmlns="http://www.w3.org/2000/svg">
<path d="M11.7279 7.75V11.5C11.7279 11.6354 11.6784 11.7526 11.5795 11.8516C11.4805 11.9505 11.3633 12 11.2279 12H8.22792V9H6.22792V12H3.22792C3.0925 12 2.97531 11.9505 2.87636 11.8516C2.7774 11.7526 2.72792 11.6354 2.72792 11.5V7.75C2.72792 7.74479 2.72922 7.73698 2.73183 7.72656C2.73443 7.71615 2.73573 7.70833 2.73573 7.70312L7.22792 4L11.7201 7.70312C11.7253 7.71354 11.7279 7.72917 11.7279 7.75ZM13.4701 7.21094L12.9857 7.78906C12.9441 7.83594 12.8894 7.86458 12.8217 7.875H12.7982C12.7305 7.875 12.6758 7.85677 12.6342 7.82031L7.22792 3.3125L1.82167 7.82031C1.75917 7.86198 1.69667 7.88021 1.63417 7.875C1.56646 7.86458 1.51177 7.83594 1.47011 7.78906L0.985731 7.21094C0.944065 7.15885 0.925836 7.09766 0.931044 7.02734C0.936252 6.95703 0.964898 6.90104 1.01698 6.85938L6.63417 2.17969C6.80084 2.04427 6.99875 1.97656 7.22792 1.97656C7.45709 1.97656 7.655 2.04427 7.82167 2.17969L9.72792 3.77344V2.25C9.72792 2.17708 9.75136 2.11719 9.79823 2.07031C9.84511 2.02344 9.905 2 9.97792 2H11.4779C11.5508 2 11.6107 2.02344 11.6576 2.07031C11.7045 2.11719 11.7279 2.17708 11.7279 2.25V5.4375L13.4389 6.85938C13.4909 6.90104 13.5196 6.95703 13.5248 7.02734C13.53 7.09766 13.5118 7.15885 13.4701 7.21094Z" fill="#181818"/>
</svg>
