<svg width="15" height="16" viewBox="0 0 15 16" fill="none" xmlns="http://www.w3.org/2000/svg">
<path d="M12.2795 9.06557V13.0834C12.2795 13.2285 12.2264 13.3541 12.1204 13.4601C12.0144 13.5661 11.8888 13.6191 11.7437 13.6191H8.52946V10.4049H6.3866V13.6191H3.17232C3.02723 13.6191 2.90167 13.5661 2.79564 13.4601C2.68962 13.3541 2.6366 13.2285 2.6366 13.0834V9.06557C2.6366 9.05999 2.638 9.05162 2.64079 9.04046C2.64358 9.0293 2.64497 9.02093 2.64497 9.01535L7.45803 5.04771L12.2711 9.01535C12.2767 9.02651 12.2795 9.04325 12.2795 9.06557ZM14.1461 8.488L13.6271 9.10742C13.5825 9.15765 13.5239 9.18834 13.4513 9.1995H13.4262C13.3537 9.1995 13.2951 9.17997 13.2504 9.1409L7.45803 4.3111L1.66562 9.1409C1.59866 9.18555 1.53169 9.20508 1.46473 9.1995C1.39218 9.18834 1.33359 9.15765 1.28895 9.10742L0.769973 8.488C0.72533 8.4322 0.705799 8.36663 0.711379 8.29129C0.71696 8.21596 0.747652 8.15597 0.803455 8.11133L6.82187 3.09738C7.00044 2.95229 7.21249 2.87974 7.45803 2.87974C7.70357 2.87974 7.91562 2.95229 8.09419 3.09738L10.1366 4.80497V3.17271C10.1366 3.09459 10.1617 3.03041 10.2119 2.98019C10.2622 2.92997 10.3263 2.90486 10.4045 2.90486H12.0116C12.0897 2.90486 12.1539 2.92997 12.2041 2.98019C12.2543 3.03041 12.2795 3.09459 12.2795 3.17271V6.58789L14.1126 8.11133C14.1684 8.15597 14.1991 8.21596 14.2047 8.29129C14.2103 8.36663 14.1907 8.4322 14.1461 8.488Z" fill="#8F8F8F"/>
</svg>
