<svg width="24" height="25" viewBox="0 0 24 25" fill="none" xmlns="http://www.w3.org/2000/svg">
<path d="M19.706 6.97063C19.706 6.97063 19.7685 6.90813 19.8935 6.78313C20.0185 6.65813 20.081 6.41706 20.081 6.05992C20.081 5.70278 19.956 5.3992 19.706 5.1492C19.456 4.8992 19.1524 4.7742 18.7953 4.7742C18.4382 4.7742 18.1346 4.8992 17.8846 5.1492C17.6346 5.3992 17.5096 5.70278 17.5096 6.05992C17.5096 6.41706 17.6346 6.72063 17.8846 6.97063C18.1346 7.22063 18.4382 7.34563 18.7953 7.34563C19.1524 7.34563 19.456 7.22063 19.706 6.97063ZM23.081 2.20278C23.081 4.42599 22.744 6.34787 22.0699 7.9684C21.3957 9.58894 20.264 11.1983 18.6748 12.7965C17.9515 13.5108 17.081 14.2965 16.0632 15.1537L15.7953 20.2296C15.7774 20.3724 15.706 20.4885 15.581 20.5778L10.4382 23.5778C10.3757 23.6135 10.3042 23.6313 10.2239 23.6313C10.1167 23.6313 10.014 23.5912 9.91583 23.5108L9.05869 22.6537C8.94262 22.5287 8.9069 22.3858 8.95155 22.2251L10.0899 18.5287L6.32655 14.7653L2.63012 15.9037C2.60333 15.9126 2.56315 15.9171 2.50958 15.9171C2.38458 15.9171 2.2819 15.8769 2.20155 15.7965L1.3444 14.9394C1.19262 14.7697 1.1703 14.5956 1.27744 14.4171L4.27744 9.2742C4.36673 9.1492 4.4828 9.07778 4.62565 9.05992L9.70155 8.79206C10.5587 7.7742 11.3444 6.90367 12.0587 6.18045C13.7373 4.51081 15.3355 3.35903 16.8533 2.7251C18.3712 2.09117 20.2953 1.7742 22.6257 1.7742C22.7507 1.7742 22.8578 1.81662 22.9471 1.90144C23.0364 1.98626 23.081 2.0867 23.081 2.20278Z" fill="#e74c3c"/>
</svg>
