<svg width="26" height="25" viewBox="0 0 26 25" fill="none" xmlns="http://www.w3.org/2000/svg">
<path d="M5.66008 17.2964C5.07103 17.2964 4.56676 17.0867 4.14728 16.6672C3.7278 16.2477 3.51806 15.7434 3.51806 15.1544V5.72946C3.51806 5.14041 3.7278 4.63614 4.14728 4.21666C4.56676 3.79718 5.07103 3.58744 5.66008 3.58744H20.2258C20.8149 3.58744 21.3192 3.79718 21.7387 4.21666C22.1581 4.63614 22.3679 5.14041 22.3679 5.72946V15.1544C22.3679 15.7434 22.1581 16.2477 21.7387 16.6672C21.3192 17.0867 20.8149 17.2964 20.2258 17.2964H5.66008ZM5.23168 5.72946V15.1544C5.23168 15.2704 5.27407 15.3708 5.35886 15.4556C5.44365 15.5404 5.54406 15.5828 5.66008 15.5828H20.2258C20.3419 15.5828 20.4423 15.5404 20.5271 15.4556C20.6119 15.3708 20.6543 15.2704 20.6543 15.1544V5.72946C20.6543 5.61344 20.6119 5.51303 20.5271 5.42824C20.4423 5.34345 20.3419 5.30106 20.2258 5.30106H5.66008C5.54406 5.30106 5.44365 5.34345 5.35886 5.42824C5.27407 5.51303 5.23168 5.61344 5.23168 5.72946ZM23.6531 18.1532H25.7951V19.4384C25.7951 19.7954 25.5854 20.0989 25.1659 20.3488C24.7464 20.5987 24.2421 20.7236 23.6531 20.7236H2.23284C1.64379 20.7236 1.13952 20.5987 0.72004 20.3488C0.30056 20.0989 0.0908203 19.7954 0.0908203 19.4384V18.1532H2.23284H23.6531ZM14.014 19.4384C14.1568 19.4384 14.2282 19.367 14.2282 19.2242C14.2282 19.0814 14.1568 19.01 14.014 19.01H11.872C11.7292 19.01 11.6578 19.0814 11.6578 19.2242C11.6578 19.367 11.7292 19.4384 11.872 19.4384H14.014Z" fill="#e74c3c"/>
</svg>
