<svg width="20" height="25" viewBox="0 0 20 25" fill="none" xmlns="http://www.w3.org/2000/svg">
<path d="M19.3466 22.7743V23.6315C19.3466 23.7476 19.3042 23.848 19.2194 23.9328C19.1346 24.0176 19.0341 24.0601 18.9181 24.0601H0.918073C0.802002 24.0601 0.701556 24.0176 0.616734 23.9328C0.531913 23.848 0.489502 23.7476 0.489502 23.6315V22.7743C0.489502 22.6583 0.531913 22.5578 0.616734 22.473C0.701556 22.3882 0.802002 22.3458 0.918073 22.3458H18.9181C19.0341 22.3458 19.1346 22.3882 19.2194 22.473C19.3042 22.5578 19.3466 22.6583 19.3466 22.7743ZM15.9181 8.63149C15.9181 9.32792 15.8087 9.97077 15.5899 10.5601C15.3712 11.1493 15.0855 11.6516 14.7328 12.0668C14.3801 12.4819 13.9895 12.8748 13.5609 13.2453C13.1324 13.6159 12.7038 13.9618 12.2752 14.2833C11.8466 14.6047 11.456 14.9261 11.1033 15.2476C10.7507 15.569 10.4649 15.9328 10.2462 16.3391C10.0274 16.7453 9.91807 17.1761 9.91807 17.6315C9.91807 18.4886 10.2172 19.4886 10.8154 20.6315L10.7618 20.6181L10.7752 20.6315C9.97165 20.2654 9.25736 19.8949 8.63236 19.5199C8.00736 19.1449 7.38906 18.6985 6.77745 18.1806C6.16584 17.6627 5.65914 17.1159 5.25736 16.54C4.85557 15.9641 4.53191 15.2922 4.28638 14.5243C4.04084 13.7565 3.91807 12.9351 3.91807 12.0601C3.91807 11.3636 4.02745 10.7208 4.2462 10.1315C4.46495 9.5422 4.75066 9.03997 5.10334 8.62479C5.45602 8.20961 5.84664 7.81676 6.27522 7.44622C6.70379 7.07568 7.13236 6.7297 7.56093 6.40827C7.9895 6.08684 8.38013 5.76542 8.73281 5.44399C9.08548 5.12256 9.3712 4.75872 9.58995 4.35247C9.8087 3.94622 9.91807 3.51542 9.91807 3.06006C9.91807 2.22077 9.62343 1.22077 9.03415 0.0600586L9.07432 0.073452L9.06093 0.0600586C9.8645 0.42613 10.5788 0.796665 11.2038 1.17167C11.8288 1.54667 12.4471 1.99309 13.0587 2.51095C13.6703 3.02881 14.177 3.57568 14.5788 4.15158C14.9806 4.72747 15.3042 5.39934 15.5498 6.1672C15.7953 6.93506 15.9181 7.75649 15.9181 8.63149Z" fill="#e74c3c"/>
</svg>
