<svg width="26" height="25" viewBox="0 0 26 25" fill="none" xmlns="http://www.w3.org/2000/svg">
<path d="M8.36408 18.7968L7.69444 19.4664C7.60515 19.5557 7.50248 19.6003 7.3864 19.6003C7.27033 19.6003 7.16765 19.5557 7.07837 19.4664L0.837298 13.2253C0.748012 13.1361 0.703369 13.0334 0.703369 12.9173C0.703369 12.8012 0.748012 12.6986 0.837298 12.6093L7.07837 6.36819C7.16765 6.27891 7.27033 6.23427 7.3864 6.23427C7.50248 6.23427 7.60515 6.27891 7.69444 6.36819L8.36408 7.03784C8.45337 7.12712 8.49801 7.2298 8.49801 7.34587C8.49801 7.46194 8.45337 7.56462 8.36408 7.65391L3.10069 12.9173L8.36408 18.1807C8.45337 18.27 8.49801 18.3727 8.49801 18.4887C8.49801 18.6048 8.45337 18.7075 8.36408 18.7968ZM16.2793 4.50659L11.2837 21.7968C11.248 21.9128 11.1788 21.9999 11.0761 22.0579C10.9735 22.116 10.8685 22.1271 10.7614 22.0914L9.93105 21.8637C9.81498 21.828 9.72792 21.7588 9.66989 21.6561C9.61185 21.5535 9.60069 21.4441 9.6364 21.328L14.6319 4.03784C14.6677 3.92176 14.7369 3.83471 14.8395 3.77668C14.9422 3.71864 15.0471 3.70748 15.1543 3.74319L15.9846 3.97087C16.1007 4.00659 16.1877 4.07578 16.2458 4.17846C16.3038 4.28114 16.315 4.39051 16.2793 4.50659ZM25.0784 13.2253L18.8373 19.4664C18.748 19.5557 18.6453 19.6003 18.5293 19.6003C18.4132 19.6003 18.3105 19.5557 18.2212 19.4664L17.5516 18.7968C17.4623 18.7075 17.4177 18.6048 17.4177 18.4887C17.4177 18.3727 17.4623 18.27 17.5516 18.1807L22.815 12.9173L17.5516 7.65391C17.4623 7.56462 17.4177 7.46194 17.4177 7.34587C17.4177 7.2298 17.4623 7.12712 17.5516 7.03784L18.2212 6.36819C18.3105 6.27891 18.4132 6.23427 18.5293 6.23427C18.6453 6.23427 18.748 6.27891 18.8373 6.36819L25.0784 12.6093C25.1677 12.6986 25.2123 12.8012 25.2123 12.9173C25.2123 13.0334 25.1677 13.1361 25.0784 13.2253Z" fill="#e74c3c"/>
</svg>
