<svg width="24" height="25" viewBox="0 0 24 25" fill="none" xmlns="http://www.w3.org/2000/svg">
<path d="M16.7126 7.94162L20.6367 4.01751L19.2037 2.58447L15.2796 6.50858L16.7126 7.94162ZM22.4581 3.41483C22.6189 3.57554 22.6992 3.77644 22.6992 4.01751C22.6992 4.25858 22.6189 4.45947 22.4581 4.62019L5.23493 21.8434C5.07422 22.0041 4.87333 22.0845 4.63225 22.0845C4.39118 22.0845 4.19029 22.0041 4.02958 21.8434L1.37779 19.1916C1.21708 19.0309 1.13672 18.83 1.13672 18.5889C1.13672 18.3479 1.21708 18.147 1.37779 17.9863L18.601 0.763046C18.7617 0.602331 18.9626 0.521975 19.2037 0.521975C19.4448 0.521975 19.6456 0.602331 19.8064 0.763046L22.4581 3.41483ZM4.60547 1.47287L5.91797 1.87465L4.60547 2.27644L4.20368 3.58894L3.8019 2.27644L2.4894 1.87465L3.8019 1.47287L4.20368 0.160366L4.60547 1.47287ZM9.29297 3.64251L11.918 4.44608L9.29297 5.24965L8.4894 7.87465L7.68583 5.24965L5.06083 4.44608L7.68583 3.64251L8.4894 1.01751L9.29297 3.64251ZM21.7483 10.0443L23.0608 10.4461L21.7483 10.8479L21.3465 12.1604L20.9448 10.8479L19.6323 10.4461L20.9448 10.0443L21.3465 8.7318L21.7483 10.0443ZM13.1769 1.47287L14.4894 1.87465L13.1769 2.27644L12.7751 3.58894L12.3733 2.27644L11.0608 1.87465L12.3733 1.47287L12.7751 0.160366L13.1769 1.47287Z" fill="#e74c3c"/>
</svg>
