<svg width="25" height="25" viewBox="0 0 25 25" fill="none" xmlns="http://www.w3.org/2000/svg">
<path d="M11.2437 12.0797L18.5562 19.3922C17.6098 20.3565 16.5049 21.1065 15.2415 21.6422C13.9781 22.1779 12.6455 22.4458 11.2437 22.4458C9.37765 22.4458 7.65667 21.986 6.08078 21.0663C4.50488 20.1467 3.25711 18.8989 2.33747 17.323C1.41783 15.7471 0.958008 14.0262 0.958008 12.1601C0.958008 10.294 1.41783 8.57303 2.33747 6.99714C3.25711 5.42125 4.50488 4.17348 6.08078 3.25384C7.65667 2.33419 9.37765 1.87437 11.2437 1.87437V12.0797ZM13.7482 12.1601H24.1009C24.1009 13.5619 23.833 14.8945 23.2973 16.1579C22.7616 17.4212 22.0116 18.5262 21.0473 19.4726L13.7482 12.1601ZM23.2437 10.4458H12.958V0.160086C14.8241 0.160086 16.5451 0.619907 18.121 1.53955C19.6968 2.45919 20.9446 3.70696 21.8643 5.28285C22.7839 6.85875 23.2437 8.57973 23.2437 10.4458Z" fill="#e74c3c"/>
</svg>
