<svg width="7" height="16" viewBox="0 0 7 16" fill="none" xmlns="http://www.w3.org/2000/svg">
<path d="M3.93087 13.0206C3.93087 13.0206 3.96366 12.9879 4.02923 12.9223C4.0948 12.8567 4.12758 12.7319 4.12758 12.5477C4.12758 12.3636 4.06201 12.2059 3.93087 12.0748C3.79973 11.9436 3.64209 11.8781 3.45794 11.8781C3.27379 11.8781 3.11614 11.9436 2.985 12.0748C2.85386 12.2059 2.7883 12.3636 2.7883 12.5477C2.7883 12.7319 2.85386 12.8895 2.985 13.0206C3.11614 13.1518 3.27379 13.2174 3.45794 13.2174C3.64209 13.2174 3.79973 13.1518 3.93087 13.0206ZM5.86865 11.2084V5.31557C5.86865 5.24302 5.84215 5.18025 5.78913 5.12723C5.73612 5.07422 5.67334 5.04771 5.60079 5.04771H1.31508C1.24254 5.04771 1.17976 5.07422 1.12674 5.12723C1.07373 5.18025 1.04722 5.24302 1.04722 5.31557V11.2084C1.04722 11.281 1.07373 11.3438 1.12674 11.3968C1.17976 11.4498 1.24254 11.4763 1.31508 11.4763H5.60079C5.67334 11.4763 5.73612 11.4498 5.78913 11.3968C5.84215 11.3438 5.86865 11.281 5.86865 11.2084ZM4.12758 4.24414C4.21687 4.24414 4.26151 4.1995 4.26151 4.11021C4.26151 4.02093 4.21687 3.97628 4.12758 3.97628H2.7883C2.69901 3.97628 2.65437 4.02093 2.65437 4.11021C2.65437 4.1995 2.69901 4.24414 2.7883 4.24414H4.12758ZM6.67222 3.97628V12.5477C6.67222 12.8379 6.5662 13.089 6.35414 13.3011C6.14209 13.5131 5.89097 13.6191 5.60079 13.6191H1.31508C1.0249 13.6191 0.773786 13.5131 0.561733 13.3011C0.349679 13.089 0.243652 12.8379 0.243652 12.5477V3.97628C0.243652 3.6861 0.349679 3.43499 0.561733 3.22294C0.773786 3.01088 1.0249 2.90486 1.31508 2.90486H5.60079C5.89097 2.90486 6.14209 3.01088 6.35414 3.22294C6.5662 3.43499 6.67222 3.6861 6.67222 3.97628Z" fill="#8F8F8F"/>
</svg>
