<svg width="20" height="20" viewBox="0 0 20 20" fill="none" xmlns="http://www.w3.org/2000/svg">
<path d="M12.2718 12.8181C12.2718 12.8181 12.5164 12.5735 13.0057 12.0843C13.4949 11.5951 13.7395 10.6622 13.7395 9.28571C13.7395 7.90923 13.2503 6.73177 12.2718 5.75335C11.2934 4.77493 10.116 4.28571 8.73947 4.28571C7.36298 4.28571 6.18552 4.77493 5.2071 5.75335C4.22868 6.73177 3.73947 7.90923 3.73947 9.28571C3.73947 10.6622 4.22868 11.8397 5.2071 12.8181C6.18552 13.7965 7.36298 14.2857 8.73947 14.2857C10.116 14.2857 11.2934 13.7965 12.2718 12.8181ZM19.4538 18.5714C19.4538 18.9583 19.3124 19.2932 19.0296 19.5759C18.7469 19.8586 18.4121 20 18.0252 20C17.6234 20 17.2886 19.8586 17.0207 19.5759L13.1926 15.7589C11.8607 16.6815 10.3764 17.1429 8.73947 17.1429C7.67548 17.1429 6.65799 16.9364 5.68701 16.5234C4.71603 16.1105 3.87898 15.5525 3.17585 14.8493C2.47273 14.1462 1.91469 13.3092 1.50174 12.3382C1.0888 11.3672 0.882324 10.3497 0.882324 9.28571C0.882324 8.22173 1.0888 7.20424 1.50174 6.23326C1.91469 5.26228 2.47273 4.42522 3.17585 3.7221C3.87898 3.01897 4.71603 2.46094 5.68701 2.04799C6.65799 1.63504 7.67548 1.42857 8.73947 1.42857C9.80346 1.42857 10.8209 1.63504 11.7919 2.04799C12.7629 2.46094 13.6 3.01897 14.3031 3.7221C15.0062 4.42522 15.5642 5.26228 15.9772 6.23326C16.3901 7.20424 16.5966 8.22173 16.5966 9.28571C16.5966 10.9226 16.1353 12.407 15.2127 13.7388L19.0408 17.567C19.3161 17.8423 19.4538 18.1771 19.4538 18.5714Z" fill="#181818"/>
</svg>
